#N canvas 545 136 404 317 10;
#N canvas 262 393 638 440 (subpatch) 0;
#X obj 8 4 bng 60 250 50 0 empty empty test 10 45 0 10 -258113 -1 -1
;
#X obj 63 157 tgl 15 0 empty empty empty 17 7 0 10 -262144 -1 -1 0
1;
#X floatatom 63 177 5 0 0 0 - - -, f 5;
#X obj 1 1 cnv 15 70 70 empty canvas OFF 20 30 0 14 -166441 -66577
0;
#X obj 247 187 select 0 1;
#X msg 318 247 \; canvas color 13 \; canvas label ON;
#X obj 306 343 s setDAF;
#X msg 92 263 0;
#X obj 92 286 s setDAF;
#X obj 308 310 float 200;
#X obj 457 322 r setDAFValue;
#X msg 182 250 \; canvas color 1 \; canvas label OFF;
#X msg 445 257 ON;
#X obj 328 401 print DAF;
#X msg 252 302 OFF;
#X connect 0 0 1 0;
#X connect 1 0 2 0;
#X connect 2 0 4 0;
#X connect 4 0 11 0;
#X connect 4 0 7 0;
#X connect 4 0 14 0;
#X connect 4 1 5 0;
#X connect 4 1 9 0;
#X connect 4 1 12 0;
#X connect 7 0 8 0;
#X connect 9 0 6 0;
#X connect 10 0 9 1;
#X connect 12 0 13 0;
#X connect 14 0 13 0;
#X coords 0 -1 1 1 72 72 1 0 0;
#X restore 241 115 graph;
#N canvas 359 489 450 250 (subpatch) 0;
#X floatatom 69 2 10 0 0 0 Delay_(ms) - -, f 10;
#X obj 69 57 s setDAFValue;
#X obj 236 38 loadbang;
#X msg 236 61 200;
#X obj 55 99 print Delay (ms) set at;
#X connect 0 0 1 0;
#X connect 0 0 4 0;
#X connect 2 0 3 0;
#X connect 3 0 0 0;
#X coords 0 1 100 -1 140 20 1 0 0;
#X restore 236 35 graph;
#N canvas 256 400 557 485 (subpatch) 0;
#X obj 253 9 adc~;
#X floatatom 436 99 5 0 0 0 - - -, f 5;
#X obj 436 121 * 44.1;
#X obj 337 299 dac~;
#X obj 35 42 vu 15 120 empty empty -1 -8 0 10 -66577 -1 1 0;
#X floatatom 436 144 5 0 0 0 - - -, f 5;
#X msg 350 64 clear;
#X obj 207 10 env~;
#X obj 213 36 - 100;
#X obj 129 43 vu 15 120 empty empty -1 -8 0 10 -66577 -1 1 0;
#X obj 233 206 env~;
#X obj 239 232 - 100;
#X obj 251 144 delay~ 22050 10;
#X obj 430 70 r setDAF;
#X obj 360 29 loadbang;
#X text 23 8 Input;
#X text 119 8 Output;
#X connect 0 0 7 0;
#X connect 0 0 12 0;
#X connect 1 0 2 0;
#X connect 2 0 5 0;
#X connect 2 0 12 1;
#X connect 6 0 12 0;
#X connect 7 0 8 0;
#X connect 8 0 4 0;
#X connect 10 0 11 0;
#X connect 11 0 9 0;
#X connect 12 0 3 0;
#X connect 12 0 10 0;
#X connect 12 0 3 1;
#X connect 13 0 1 0;
#X connect 14 0 6 0;
#X coords 0 1 100 -1 200 200 1 0 0;
#X restore 15 10 graph;
#X text 17 225 Delayed Feedback Demo;
#X text 17 240 Check your audio settings for optimal performance;
#X text 17 255 Matthias K. Franken \, 2019;
